<svg width="300" height="40" viewBox="0 0 300 40" fill="none" xmlns="http://www.w3.org/2000/svg">
  <!-- Icon nền xanh (40x40) -->
  <path d="M0 10C0 4.47715 4.47715 0 10 0H30C35.5229 0 40 4.47715 40 10V30C40 35.5229 35.5229 40 30 40H10C4.47715 40 0 35.5229 0 30V10Z" fill="#465FFF"/>
  
  <!-- Cột trắng -->
  <path d="M10 10C10 8.9 10.9 8 12 8C13.1 8 14 8.9 14 10V30C14 31.1 13.1 32 12 32C10.9 32 10 31.1 10 30V10Z" fill="white"/>
  <path d="M18 16C18 14.9 18.9 14 20 14C21.1 14 22 14.9 22 16V30C22 31.1 21.1 32 20 32C18.9 32 18 31.1 18 30V16Z" fill="white" fill-opacity="0.9"/>
  <path d="M26 12C26 10.9 26.9 10 28 10C29.1 10 30 10.9 30 12V30C30 31.1 29.1 32 28 32C26.9 32 26 31.1 26 30V12Z" fill="white" fill-opacity="0.7"/>
  
  <!-- Text EduResearch -->
  <text x="50" y="30" fill="black" font-family="Arial, sans-serif" font-size="32" font-weight="bold">
    EduResearch
  </text>
</svg>
